# xmcd
#
# Track frame offsets:
#	150
#	17033
#	34489
#	51817
#	68522
#	84493
#	96131
#	114982
#	132342
#	149245
#	163441
#	177365
#	187497
#	203026
#	219438
#	235832
#	252058
#	269975
#
# Disc length: 3762 seconds
#
# Revision: 4
# Processed by: cddbd v1.5.1PL0 Copyright (c) Steve Scherf et al.
# Submitted via: audiograbber 1.83.01
#
DISCID=190eb012
DTITLE=Various Artist - RC50
DYEAR=1998
DGENRE=Country
TTITLE0=Shania Twain - Honey I'm Home
TTITLE1=Lonestar - Everything's Changed
TTITLE2=Dixie Chicks - Wide Open Spaces
TTITLE3=Mark Wills - Don't Laugh At Me
TTITLE4=Trisha Yearwood ft. Garth Brooks - Where Your Road Leads
TTITLE5=George Strait - We Really Shouldn't Be Doing This
TTITLE6=Faith Hill - Let Me Let Go
TTITLE7=Collin Raye - Someone You Used To Know
TTITLE8=Lee Ann Womack - A Little Past Little Rock
TTITLE9=Brooks And Dunn - Husbands And Wives
TTITLE10=Alabama - How Do You Fall In Love
TTITLE11=Steve Wariner ft. Garth Brooks - Burnin' The Roadhouse Down
TTITLE12=Clint Black - Loosen Up My Strings
TTITLE13=Terri Clark - You're Easy On The Eyes
TTITLE14=Ty Herndon - It Must Be Love
TTITLE15=LeAnn Rimes - Nothin' New Under The Moon
TTITLE16=Garth Brooks - You Move Me
TTITLE17=Neal McCoy - Love Happens Like That
EXTD=
EXTT0=
EXTT1=
EXTT2=
EXTT3=
EXTT4=
EXTT5=
EXTT6=
EXTT7=
EXTT8=
EXTT9=
EXTT10=
EXTT11=
EXTT12=
EXTT13=
EXTT14=
EXTT15=
EXTT16=
EXTT17=
PLAYORDER=
